# xmcd
#
# Track frame offsets:
#	150
#	31302
#	50016
#	65153
#	70388
#	87193
#	102103
#	119056
#	133268
#	158715
#	171087
#	185385
#	207222
#	230304
#	254801
#	279454
#
# Disc length: 4000 seconds
#
# Revision: 1
# Processed by: cddbd v1.5.2PL0 Copyright (c) Steve Scherf et al.
# Submitted via: audiograbber 1.83.01
#
DISCID=f10f9e10
DTITLE=Nina Simone - Feel the groove - Vintage Vinyl - side B
DYEAR=1900
DGENRE=Jazz
TTITLE0=The house of the rising sun
TTITLE1=I loves you Porgy
TTITLE2=Love me or leave me
TTITLE3=You took my teeth
TTITLE4=Do what you gotta do
TTITLE5=Saratoga
TTITLE6=Sea Line Woman
TTITLE7=African Mailman
TTITLE8=After you've gone
TTITLE9=Ain't no use
TTITLE10=Don't smoke in bed
TTITLE11=Four women
TTITLE12=Fodder on her wings
TTITLE13=Good Bait
TTITLE14=It´s cold out here
TTITLE15=Just in time
EXTD=
EXTT0=
EXTT1=
EXTT2=
EXTT3=
EXTT4=
EXTT5=
EXTT6=
EXTT7=
EXTT8=
EXTT9=
EXTT10=
EXTT11=
EXTT12=
EXTT13=
EXTT14=
EXTT15=
PLAYORDER=
